<svg width="146" height="25" viewBox="0 0 146 25" fill="none" xmlns="http://www.w3.org/2000/svg">
<g clip-path="url(#clip0_210_282)">
<path d="M16 5L6 25H63.5L73.5 5H16Z" fill="#FFFEC5" stroke="black"/>
<path d="M83 5L73 25H130.5L140.5 5H83Z" fill="#FFFEC5" stroke="black"/>
<path d="M29.4973 21V10.71H31.7653C32.6613 10.71 33.3799 10.8407 33.9213 11.102C34.4626 11.3633 34.8546 11.7273 35.0973 12.194C35.3399 12.6513 35.4613 13.1787 35.4613 13.776C35.4613 14.868 35.1439 15.7127 34.5093 16.31C33.8746 16.898 32.9133 17.192 31.6253 17.192H31.0793V21H29.4973ZM31.0793 15.806H31.6673C32.2833 15.806 32.7499 15.708 33.0673 15.512C33.3846 15.316 33.5993 15.0733 33.7113 14.784C33.8233 14.4947 33.8793 14.2147 33.8793 13.944C33.8793 13.6173 33.8186 13.314 33.6973 13.034C33.5759 12.754 33.3659 12.5253 33.0673 12.348C32.7686 12.1707 32.3486 12.082 31.8073 12.082H31.0793V15.806ZM39.2871 21.14C38.8951 21.14 38.5078 21.0933 38.1251 21C37.7424 20.8973 37.4018 20.776 37.1031 20.636C36.8044 20.4867 36.5804 20.3373 36.4311 20.188L37.1731 18.858C37.2758 18.942 37.4344 19.054 37.6491 19.194C37.8731 19.3247 38.1298 19.4413 38.4191 19.544C38.7084 19.6467 38.9978 19.698 39.2871 19.698C39.7631 19.698 40.1598 19.586 40.4771 19.362C40.8038 19.138 40.9671 18.8113 40.9671 18.382C40.9671 18.0273 40.8738 17.7333 40.6871 17.5C40.5004 17.2667 40.2531 17.0613 39.9451 16.884C39.6464 16.7067 39.3198 16.5387 38.9651 16.38C38.6198 16.212 38.2884 16.0253 37.9711 15.82C37.6071 15.5773 37.2898 15.2553 37.0191 14.854C36.7484 14.4527 36.6131 13.9347 36.6131 13.3C36.6131 12.6747 36.7531 12.1613 37.0331 11.76C37.3224 11.3587 37.7004 11.06 38.1671 10.864C38.6431 10.6587 39.1611 10.556 39.7211 10.556C40.1691 10.556 40.5518 10.6027 40.8691 10.696C41.1864 10.7893 41.4524 10.9013 41.6671 11.032C41.8818 11.1627 42.0498 11.2793 42.1711 11.382L41.4291 12.656C41.2704 12.488 41.0324 12.334 40.7151 12.194C40.3978 12.0447 40.0431 11.97 39.6511 11.97C39.1938 11.97 38.8298 12.0773 38.5591 12.292C38.2884 12.4973 38.1531 12.8053 38.1531 13.216C38.1531 13.58 38.2744 13.8927 38.5171 14.154C38.7598 14.406 39.0678 14.6393 39.4411 14.854C39.8238 15.0593 40.2158 15.2693 40.6171 15.484C41.0184 15.6987 41.3731 15.9507 41.6811 16.24C41.9331 16.464 42.1478 16.744 42.3251 17.08C42.5024 17.416 42.5911 17.794 42.5911 18.214C42.5911 18.8487 42.4418 19.3853 42.1431 19.824C41.8538 20.2627 41.4618 20.594 40.9671 20.818C40.4724 21.0327 39.9124 21.14 39.2871 21.14ZM47.1756 21.14C46.3729 21.14 45.7196 20.986 45.2156 20.678C44.7116 20.3607 44.3429 19.9453 44.1096 19.432C43.8762 18.9187 43.7596 18.3727 43.7596 17.794C43.7596 17.094 43.8996 16.492 44.1796 15.988C44.4689 15.484 44.8656 15.0967 45.3696 14.826C45.8736 14.546 46.4429 14.406 47.0776 14.406C48.0949 14.406 48.8369 14.6907 49.3036 15.26C49.7702 15.82 50.0036 16.576 50.0036 17.528C50.0036 17.78 49.9896 18.0413 49.9616 18.312H45.3416C45.4442 18.8907 45.6496 19.306 45.9576 19.558C46.2749 19.8007 46.6949 19.922 47.2176 19.922C47.7216 19.922 48.1182 19.8753 48.4076 19.782C48.6969 19.6887 48.9349 19.5953 49.1216 19.502L49.5836 20.58C49.3969 20.7013 49.1076 20.8273 48.7156 20.958C48.3236 21.0793 47.8102 21.14 47.1756 21.14ZM45.3416 17.262H48.5336C48.5429 16.6553 48.4076 16.24 48.1276 16.016C47.8476 15.792 47.4836 15.68 47.0356 15.68C46.5689 15.68 46.1862 15.806 45.8876 16.058C45.5982 16.3007 45.4162 16.702 45.3416 17.262Z" fill="#090CD7"/>
<path d="M99.6051 21V10.71H101.173V21H99.6051ZM103.085 21V14.574H104.569L104.583 15.75C104.751 15.3673 105.021 15.05 105.395 14.798C105.777 14.5367 106.235 14.406 106.767 14.406C107.457 14.406 107.975 14.5507 108.321 14.84C108.666 15.12 108.895 15.5213 109.007 16.044C109.128 16.5667 109.189 17.1873 109.189 17.906V21H107.677V17.948C107.677 17.2013 107.602 16.632 107.453 16.24C107.313 15.848 106.981 15.652 106.459 15.652C106.188 15.652 105.908 15.736 105.619 15.904C105.329 16.072 105.087 16.3147 104.891 16.632C104.695 16.9493 104.597 17.3413 104.597 17.808V21H103.085ZM111.424 21V15.806H110.29V14.574H111.424V11.956L112.95 11.62V14.574H114.434V15.806H112.95V21H111.424Z" fill="#090CD7"/>
<path d="M0 14V17H9L7.5 19.5L9 21L12.5 15.5L9 10L7.5 11.5L9 14H0Z" fill="#D72944" stroke="#EFF0F4" stroke-width="0.5"/>
<path d="M67 14V17H76L74.5 19.5L76 21L79.5 15.5L76 10L74.5 11.5L76 14H67Z" fill="#D72944" stroke="#EFF0F4" stroke-width="0.5"/>
<path d="M133 14V17H142L140.5 19.5L142 21L145.5 15.5L142 10L140.5 11.5L142 14H133Z" fill="#D72944" stroke="#EFF0F4" stroke-width="0.5"/>
<path d="M58.875 10L57 3.125L60.75 5.625L65.125 0L67 1.25L62.625 6.875L66.375 9.375L58.875 10Z" fill="#070CDA" stroke="#EFF0F4" stroke-width="0.5"/>
<path d="M132.125 0L134 6.875L130.25 4.375L125.875 10L124 8.75L128.375 3.125L124.625 0.625L132.125 0Z" fill="#070CDA" stroke="#EFF0F4" stroke-width="0.5"/>
</g>
<defs>
<clipPath id="clip0_210_282">
<rect width="146" height="25" fill="white"/>
</clipPath>
</defs>
</svg>
